<svg width="100" height="100" viewBox="0 0 100 100" fill="none" xmlns="http://www.w3.org/2000/svg">
<rect width="100" height="100" fill="white"/>
<path d="M29.6337 46.2169C29.1749 45.6175 28.4974 45.2244 27.7495 45.1236C27.0017 45.0228 26.2444 45.2225 25.6433 45.679C25.2897 45.958 25.0045 46.3141 24.8094 46.7202L0.308777 95.7586C-0.0382351 96.4535 -0.0952331 97.2579 0.150312 97.9949C0.395856 98.7319 0.923849 99.3412 1.61823 99.6888C2.02412 99.8942 2.47284 100.001 2.92769 99.9991H37.0632C37.6099 100.013 38.1489 99.8672 38.614 99.5794C39.0792 99.2916 39.4504 98.8744 39.6821 98.3787C47.0495 83.1542 42.5836 60.0072 29.6337 46.2169Z" fill="url(#paint0_linear_790_271)"/>
<path d="M47.6423 1.59123C41.5345 10.9945 37.975 21.8248 37.3129 33.0195C36.6508 44.2143 38.9088 55.389 43.8655 65.4473L60.3234 98.3785C60.5665 98.8652 60.9403 99.2746 61.4029 99.5608C61.8654 99.847 62.3985 99.9987 62.9423 99.9989H97.071C97.4559 99.9998 97.8372 99.9246 98.193 99.7777C98.5487 99.6307 98.872 99.4149 99.1442 99.1426C99.4163 98.8703 99.6321 98.5469 99.7789 98.191C99.9258 97.835 100.001 97.4536 100 97.0685C100 96.6143 99.8966 96.1662 99.6968 95.7584L52.6251 1.57744C52.4017 1.10551 52.049 0.706738 51.6079 0.427491C51.1669 0.148244 50.6557 0 50.1337 0C49.6118 0 49.1006 0.148244 48.6595 0.427491C48.2185 0.706738 47.8657 1.10551 47.6423 1.57744V1.59123Z" fill="#2684FF"/>
<defs>
<linearGradient id="paint0_linear_790_271" x1="43.1211" y1="53.7119" x2="17.2306" y2="98.5335" gradientUnits="userSpaceOnUse">
<stop stop-color="#0052CC"/>
<stop offset="0.92" stop-color="#2684FF"/>
</linearGradient>
</defs>
</svg>
