<svg width="100" height="96" viewBox="0 0 100 96" fill="none" xmlns="http://www.w3.org/2000/svg">
<path d="M5.85743 66.0259C5.95326 66.2426 6.06159 66.4426 6.17826 66.6426C6.23243 66.7593 6.30743 66.8801 6.3741 66.9884C6.48243 67.2051 6.5991 67.4134 6.7116 67.6218L7.36577 68.7218C7.48661 68.9259 7.60328 69.1259 7.74078 69.3259C7.96995 69.7176 8.24078 70.1009 8.47829 70.4926C8.58662 70.6551 8.68662 70.8176 8.80746 70.9801C9.26579 71.6926 9.68247 72.2843 10.1283 72.8593C10.445 73.2885 10.7616 73.7093 11.1033 74.1302C11.2158 74.2885 11.3408 74.4468 11.4575 74.6052L12.3783 75.7218C12.4908 75.851 12.6033 76.001 12.7242 76.1343C13.1325 76.626 13.5658 77.101 13.9992 77.5844C13.9992 77.5927 14.0117 77.601 14.02 77.6135C14.5575 78.2885 15.1367 78.8885 15.77 79.4219L15.7867 79.4385C16.12 79.7802 16.4534 80.1177 16.8075 80.451L17.2284 80.8552C17.6909 81.2886 18.1534 81.7177 18.6409 82.1344C18.6492 82.1344 18.6534 82.1427 18.6617 82.1469L18.8992 82.3552C19.3242 82.7261 19.7534 83.0927 20.1909 83.4344L20.7118 83.8719C21.0659 84.1552 21.4326 84.4219 21.7951 84.7011L22.3618 85.1344C22.7493 85.4261 23.1618 85.7094 23.5576 85.9928C23.7034 86.0969 23.8493 86.2011 23.9993 86.2969L24.1201 86.3928L25.291 87.1594L25.791 87.4928C26.4035 87.8844 27.0118 88.2511 27.6202 88.6178C27.7952 88.7053 27.9702 88.8011 28.1327 88.9011C28.5827 89.1595 29.0493 89.422 29.5035 89.6595C29.7535 89.8011 30.0119 89.922 30.2702 90.0511C30.5827 90.2261 30.9077 90.397 31.241 90.572C31.3327 90.6011 31.4077 90.6303 31.4827 90.672L31.4994 90.6553C31.6369 90.7178 31.766 90.7845 31.8994 90.8511C32.3994 91.1011 32.9202 91.3386 33.4619 91.572C33.5619 91.6136 33.6702 91.6553 33.7786 91.7136C34.3786 91.9762 34.9786 92.2262 35.5994 92.4678C35.7411 92.5095 35.8911 92.5803 36.0369 92.6345C36.5994 92.847 37.1786 93.0637 37.7536 93.2678L37.9619 93.3428C38.5994 93.5595 39.2286 93.7678 39.8786 93.9637C40.0286 94.0053 40.1828 94.0595 40.3411 94.1012C41.0036 94.3012 41.6453 94.5387 42.3162 94.6637C85.1208 102.426 97.5584 69.0551 97.5584 69.0551C87.1083 82.5969 68.5623 86.1678 50.9996 82.1927C50.3496 82.0427 49.6996 81.8344 49.0412 81.6427C48.112 81.3797 47.1908 81.0893 46.2787 80.7719L46.6745 80.8927L46.4162 80.7927C45.8495 80.601 45.3037 80.3885 44.7495 80.176C44.6139 80.1185 44.4763 80.0657 44.337 80.0177L44.2912 80.0052C43.6787 79.7594 43.0828 79.5094 42.4912 79.2469C42.362 79.2052 42.2536 79.1469 42.1245 79.0969C41.4237 78.7915 40.7291 78.4719 40.0411 78.1385L40.6161 78.3927C40.4661 78.3264 40.3188 78.2541 40.1745 78.176C39.7828 77.9927 39.3911 77.7844 39.0078 77.5885C38.7158 77.4502 38.4282 77.3029 38.1453 77.1468L38.2286 77.1885C37.7578 76.9385 37.2869 76.6677 36.8119 76.4135C36.6703 76.3135 36.5078 76.2302 36.3453 76.1385C35.6392 75.7281 34.9418 75.303 34.2536 74.8635L34.5161 75.0218C34.3397 74.9129 34.1673 74.7975 33.9994 74.676L34.0244 74.6927C33.5766 74.4176 33.1374 74.1286 32.7077 73.826C32.566 73.7343 32.4369 73.6343 32.291 73.5343C31.8421 73.2279 31.4003 72.9111 30.966 72.5843L31.066 72.6551C30.891 72.5135 30.7035 72.3801 30.516 72.2426C30.1494 71.9551 29.7785 71.6801 29.4118 71.3801L28.9202 70.9885C28.3962 70.5715 27.8821 70.1423 27.3785 69.701L27.3743 69.6968L25.9285 68.3843L25.5118 67.9926C25.1701 67.6468 24.8201 67.3176 24.4701 66.9759L24.066 66.5593C23.6346 66.132 23.2136 65.6944 22.8034 65.2467L22.7784 65.2176L22.7076 65.1592C22.2664 64.6747 21.8317 64.1844 21.4034 63.6884C21.2909 63.5592 21.1868 63.4217 21.0701 63.2842L20.1242 62.1384C19.6979 61.6028 19.2811 61.0597 18.8742 60.5092L18.7076 60.2759C8.96579 47.0424 5.44075 28.7797 13.2367 13.7963L6.35326 22.5005C-2.501 35.1631 -1.40515 51.6299 5.36575 65.0759C5.51992 65.4051 5.69076 65.7134 5.85743 66.0259Z" fill="#1266A9"/>
<path d="M35.6786 47.784L35.6328 47.7174L35.5952 47.6674L35.6786 47.784Z" fill="black"/>
<path d="M40.337 53.2506L40.712 53.6256C41.187 54.0839 41.6745 54.5298 42.1703 54.9756L42.2328 55.0298C42.7328 55.4715 43.2953 55.934 43.8745 56.384L43.962 56.4506C44.1037 56.5465 44.2245 56.659 44.362 56.7548C44.9453 57.2048 45.5328 57.634 46.1453 58.0632L46.2079 58.1007C46.4662 58.2882 46.7412 58.459 47.0329 58.6423C47.1495 58.7173 47.2829 58.8173 47.4079 58.8923C47.8495 59.1757 48.2829 59.4382 48.7287 59.709C48.7995 59.7382 48.862 59.7757 48.9287 59.8048C49.3037 60.034 49.712 60.2548 50.1037 60.4548C50.2412 60.5382 50.3746 60.6007 50.5162 60.6798C50.7954 60.8173 51.0704 60.9632 51.3371 61.1048L51.4704 61.1632C52.0329 61.4382 52.6079 61.6965 53.1704 61.9507C53.3121 62.0049 53.4329 62.0507 53.5538 62.109C54.0163 62.309 54.4871 62.5007 54.9496 62.6757C55.1579 62.7465 55.3538 62.8299 55.5496 62.8924C55.9746 63.0507 56.4205 63.1965 56.8413 63.3424L57.4246 63.5299C58.033 63.7174 58.6496 63.9632 59.2955 64.0632C92.35 69.5049 100 44.1838 100 44.1838C93.1125 54.0464 79.7832 58.7465 65.5789 55.0756C64.8698 54.8968 64.1667 54.6953 63.4705 54.4715L63.708 54.5381C63.508 54.4839 63.333 54.4214 63.1413 54.3631C62.708 54.2131 62.2622 54.0673 61.8413 53.9131L61.2413 53.6881C60.7747 53.5006 60.2997 53.3256 59.8455 53.1256C59.7038 53.0631 59.5746 53.0214 59.4663 52.9589C58.883 52.6964 58.2955 52.4381 57.7246 52.1631L56.8663 51.7173L56.3705 51.4673C55.9871 51.2673 55.6329 51.0589 55.2663 50.8464C55.1728 50.8025 55.0823 50.7524 54.9954 50.6964L55.0079 50.7006C54.5663 50.4256 54.1079 50.1589 53.6829 49.8797C53.5413 49.8006 53.4121 49.7047 53.2788 49.6214L52.4121 49.0589C51.8121 48.6422 51.2246 48.1964 50.6287 47.7631C50.4954 47.6422 50.3662 47.5422 50.2371 47.4339C43.9912 42.5463 39.0661 35.8671 36.7286 28.3045C34.2661 20.4419 34.8077 11.6252 39.0619 4.47095L33.8327 11.8377C27.4118 21.0086 27.7743 33.2671 32.7744 42.9672C33.6869 44.7589 34.6119 46.2714 35.6327 47.713C36.5828 49.0714 37.6328 50.6631 38.8994 51.7548C39.3495 52.2673 39.8328 52.7548 40.337 53.2506Z" fill="#1266A9"/>
<path d="M56.9413 3.86254C53.1537 9.39176 52.7912 16.2585 55.3996 22.3544C58.1704 28.8294 63.833 33.9128 70.4331 36.3212C70.7039 36.4254 70.9664 36.5129 71.2456 36.6129L71.6123 36.7254C71.9956 36.8462 72.3831 36.9879 72.7789 37.0754C91.0333 40.5796 95.975 27.7503 97.3042 25.8628C92.9583 32.0711 85.6708 33.5628 76.729 31.4003C75.9515 31.2107 75.1862 30.9742 74.4373 30.692L74.5748 30.7378C73.6429 30.4153 72.7303 30.0397 71.8414 29.6128L71.9998 29.6836C70.2914 28.8503 68.8247 27.9503 67.4622 26.9169C59.4705 20.8752 54.5287 9.37093 59.7455 0L56.9413 3.86254Z" fill="#1266A9"/>
</svg>
