<svg width="100" height="100" viewBox="0 0 100 100" fill="none" xmlns="http://www.w3.org/2000/svg">
<g clip-path="url(#clip0_807_29)">
<path d="M50 100C77.6142 100 100 77.6142 100 50C100 22.3858 77.6142 0 50 0C22.3858 0 0 22.3858 0 50C0 77.6142 22.3858 100 50 100Z" fill="#5C2D91"/>
<path opacity="0.1" d="M16.7355 12.9995C11.6526 17.5289 7.54833 23.0486 4.67414 29.2203C1.79995 35.3921 0.216439 42.0857 0.0206758 48.8911C-0.175088 55.6964 1.02102 62.47 3.53568 68.7968C6.05034 75.1235 9.83057 80.87 14.6447 85.6841C19.4588 90.4982 25.2053 94.2784 31.532 96.7931C37.8587 99.3078 44.6324 100.504 51.4377 100.308C58.2431 100.112 64.9367 98.5288 71.1084 95.6546C77.2802 92.7804 82.7999 88.6761 87.3293 83.5933L16.7355 12.9995Z" fill="white"/>
<path d="M11.5624 58.203C11.2708 58.2076 10.9813 58.1517 10.7124 58.0387C10.4434 57.9258 10.2009 57.7583 9.99995 57.5468C9.79352 57.3428 9.63039 57.0993 9.52031 56.8309C9.41023 56.5624 9.35547 56.2744 9.35932 55.9843C9.35724 55.6944 9.4128 55.407 9.52278 55.1387C9.63275 54.8705 9.79495 54.6268 9.99995 54.4218C10.1989 54.2067 10.4408 54.0358 10.7099 53.92C10.979 53.8043 11.2695 53.7463 11.5624 53.7499C11.855 53.7492 12.1445 53.8084 12.4133 53.924C12.682 54.0396 12.9242 54.209 13.1249 54.4218C13.3335 54.625 13.499 54.868 13.6118 55.1364C13.7245 55.4048 13.7821 55.6932 13.7812 55.9843C13.7839 56.2757 13.7271 56.5646 13.6143 56.8332C13.5014 57.1019 13.3349 57.3447 13.1249 57.5468C12.9223 57.756 12.6794 57.9221 12.4109 58.0348C12.1423 58.1476 11.8537 58.2049 11.5624 58.203Z" fill="white"/>
<path d="M42.6094 57.8125H38.5156L23.875 35.0937C23.5103 34.534 23.2065 33.9368 22.9687 33.3125H22.8437C22.9829 34.6096 23.0351 35.9146 23 37.2187V57.8125H19.6719V29.3281H24L38.25 51.6406C38.8437 52.5677 39.2292 53.2031 39.4062 53.5469H39.4844C39.3195 52.1575 39.2516 50.7582 39.2812 49.3594V29.3281H42.6094V57.8125Z" fill="white"/>
<path d="M65.1406 57.8125H50V29.3281H64.4375V32.3438H53.4063V41.8125H63.6875V44.8125H53.4063V54.6875H65.1563L65.1406 57.8125Z" fill="white"/>
<path d="M87.5 32.3438H79.2187V57.8125H75.8906V32.3438H67.7031V29.3281H87.5V32.3438Z" fill="white"/>
<path d="M40.8125 77.1876C39.6844 77.7339 38.4401 77.9967 37.1875 77.9532C36.3551 77.9907 35.5244 77.8498 34.7509 77.5399C33.9775 77.23 33.2793 76.7582 32.7031 76.1563C31.555 74.8712 30.9501 73.1909 31.0156 71.4688C30.9736 70.5365 31.1193 69.6051 31.4441 68.7301C31.7688 67.8551 32.2661 67.0543 32.9062 66.3751C33.5301 65.736 34.2802 65.2337 35.1087 64.9001C35.9372 64.5665 36.8261 64.409 37.7187 64.4376C38.7871 64.4011 39.8513 64.5873 40.8437 64.9845V66.547C39.8882 66.018 38.8108 65.7486 37.7187 65.7657C37.0303 65.7463 36.3457 65.8759 35.712 66.1456C35.0783 66.4153 34.5103 66.8187 34.0469 67.3282C33.0724 68.4384 32.5681 69.8841 32.6406 71.3595C32.5677 72.7571 33.0379 74.1288 33.9531 75.1876C34.3921 75.6596 34.928 76.0311 35.524 76.2765C36.1201 76.522 36.7622 76.6355 37.4062 76.6095C38.6059 76.6409 39.7907 76.3379 40.8281 75.7345L40.8125 77.1876Z" fill="#F2F2F2"/>
<path d="M47.2031 77.9532C46.5812 77.9733 45.9621 77.8596 45.3879 77.6197C44.8137 77.3798 44.2978 77.0193 43.875 76.5626C43.0206 75.6091 42.577 74.3569 42.6406 73.0782C42.6016 72.4083 42.6962 71.7373 42.9188 71.1042C43.1415 70.4712 43.4877 69.8887 43.9375 69.3907C44.3965 68.9427 44.9426 68.5937 45.542 68.3653C46.1413 68.1368 46.7811 68.0338 47.4219 68.0626C48.0276 68.0303 48.633 68.1295 49.1967 68.3534C49.7604 68.5773 50.269 68.9205 50.6875 69.3595C51.518 70.3603 51.9369 71.6394 51.8594 72.9376C51.925 74.2551 51.4705 75.5457 50.5938 76.5313C50.163 76.9969 49.6375 77.3647 49.0526 77.61C48.4678 77.8552 47.8371 77.9723 47.2031 77.9532ZM47.3125 69.4063C46.8827 69.3882 46.4544 69.4674 46.0594 69.6378C45.6644 69.8082 45.313 70.0656 45.0313 70.3907C44.43 71.1649 44.1302 72.1309 44.1875 73.1095C44.133 74.0589 44.4337 74.9946 45.0313 75.7345C45.3159 76.055 45.6682 76.3082 46.0628 76.4757C46.4574 76.6433 46.8842 76.721 47.3125 76.7032C47.7318 76.728 48.1512 76.6563 48.5385 76.4938C48.9258 76.3313 49.2708 76.0822 49.5469 75.7657C50.115 74.9895 50.3915 74.038 50.3281 73.0782C50.3899 72.1137 50.1137 71.1579 49.5469 70.3751C49.2746 70.052 48.9312 69.7963 48.5435 69.6282C48.1558 69.4601 47.7345 69.3842 47.3125 69.4063Z" fill="#F2F2F2"/>
<path d="M59.1562 69.875C58.8188 69.6539 58.4181 69.5496 58.0156 69.5782C57.7009 69.5896 57.3937 69.6782 57.1213 69.8363C56.8488 69.9943 56.6194 70.2169 56.4531 70.4844C55.9881 71.2207 55.7641 72.0836 55.8125 72.9532V77.7344H54.25V68.3594H55.8125V70.3125C55.9843 69.7082 56.3259 69.1659 56.7969 68.75C57.2044 68.3964 57.7261 68.2021 58.2656 68.2032C58.5677 68.1896 58.8696 68.232 59.1562 68.3282V69.875Z" fill="#F2F2F2"/>
<path d="M68.3125 73.4374H61.7031C61.6588 74.3109 61.9431 75.1693 62.5 75.8437C62.7896 76.1325 63.137 76.357 63.5193 76.5024C63.9017 76.6478 64.3104 76.7108 64.7188 76.6874C65.778 76.6769 66.8024 76.3078 67.625 75.6405V77.0468C66.6589 77.6836 65.515 77.9955 64.3594 77.9374C63.7763 77.9668 63.194 77.8673 62.6538 77.6458C62.1136 77.4243 61.629 77.0864 61.2344 76.6562C60.421 75.6415 60.0143 74.3604 60.0938 73.0624C60.0376 71.7612 60.479 70.4874 61.3281 69.4999C61.7146 69.0535 62.1954 68.6985 62.7359 68.4607C63.2764 68.2229 63.8629 68.1082 64.4531 68.1249C64.9861 68.0951 65.5188 68.1864 66.0114 68.3921C66.5039 68.5978 66.9435 68.9124 67.2969 69.3124C68.0163 70.2611 68.3712 71.4366 68.2969 72.6249L68.3125 73.4374ZM66.75 72.1718C66.7817 71.4478 66.5608 70.7352 66.125 70.1562C65.9112 69.9146 65.6456 69.7245 65.3479 69.6C65.0503 69.4755 64.7284 69.42 64.4063 69.4374C64.07 69.4333 63.7366 69.4992 63.4272 69.6311C63.1179 69.7629 62.8393 69.9577 62.6094 70.203C62.0951 70.7471 61.7716 71.4435 61.6875 72.1874L66.75 72.1718Z" fill="#F2F2F2"/>
</g>
<defs>
<clipPath id="clip0_807_29">
<rect width="100" height="100" fill="white"/>
</clipPath>
</defs>
</svg>
