<svg width="97" height="100" viewBox="0 0 97 100" fill="none" xmlns="http://www.w3.org/2000/svg">
<path d="M96.4716 59.9022C95.8902 58.1365 94.3673 56.9067 92.3978 56.6116C91.4691 56.4726 90.4055 56.5319 89.1469 56.792C86.9532 57.2459 85.3257 57.4187 84.138 57.4521C88.6212 49.8619 92.2667 41.2063 94.3654 33.0585C97.759 19.8837 95.9455 13.8818 93.8264 11.167C88.2183 3.98123 80.0361 0.120977 70.1652 0.00285975C64.8994 -0.0617057 60.2768 0.980837 57.8653 1.73056C55.62 1.33329 53.2059 1.11149 50.6728 1.07047C45.9244 0.99451 41.729 2.0325 38.1442 4.16582C36.1595 3.49281 32.9742 2.54408 29.2958 1.93869C20.6444 0.514446 13.6716 1.62421 8.57139 5.23722C2.3955 9.61172 -0.467472 17.2122 0.0620198 27.8276C0.230185 31.1979 2.1103 41.4524 5.0706 51.1775C6.77195 56.7673 8.58616 61.4092 10.4629 64.9755C13.1243 70.0325 15.9722 73.0105 19.1692 74.08C20.961 74.6786 24.2168 75.0978 27.6411 72.238C28.0751 72.7651 28.6542 73.2889 29.4227 73.7754C30.3987 74.3926 31.5922 74.8969 32.7841 75.1958C37.0795 76.2726 41.1029 76.0033 44.5356 74.494C44.5568 75.1062 44.573 75.6911 44.5867 76.1962C44.6094 77.0154 44.6321 77.8187 44.6621 78.57C44.8654 83.6494 45.2101 87.5989 46.2312 90.3623C46.2873 90.5142 46.3626 90.7459 46.4422 90.9916C46.9516 92.5556 47.8034 95.1739 49.9706 97.2244C52.2147 99.3487 54.9292 100 57.4153 100C58.6622 100 59.8518 99.8359 60.8953 99.6118C64.6146 98.8124 68.8388 97.5947 71.8945 93.2316C74.7836 89.107 76.188 82.8947 76.4422 73.1062C76.4751 72.8293 76.5054 72.565 76.5346 72.3132L76.5952 71.7959L77.2758 71.8559L77.4512 71.8677C81.2394 72.0409 85.8715 71.2353 88.7163 69.9102C90.9642 68.8642 98.1676 65.0507 96.4716 59.9022Z" fill="black"/>
<path d="M89.9943 60.9033C78.7303 63.2333 77.9558 59.4092 77.9558 59.4092C89.8485 41.7133 94.8204 19.2509 90.5303 13.7533C78.8254 -1.24298 58.5641 5.84936 58.2259 6.03318L58.1172 6.05293C55.8917 5.58958 53.4014 5.31385 50.6021 5.26789C45.5056 5.18434 41.6393 6.60782 38.7055 8.83875C38.7055 8.83875 2.56141 -6.09261 4.24268 27.6175C4.60022 34.7888 14.4932 81.8803 26.2927 67.6565C30.6056 62.4551 34.773 58.0575 34.773 58.0575C36.8424 59.4361 39.3202 60.1395 41.9177 59.887L42.1196 59.7153C42.0567 60.3609 42.0855 60.9925 42.2002 61.7404C39.1604 65.146 40.0539 65.7438 33.9772 66.9983C27.8282 68.2691 31.4403 70.5312 33.7988 71.1229C36.658 71.8396 43.2725 72.8551 47.7417 66.5813L47.5637 67.2972C48.7545 68.2539 49.5908 73.5194 49.4507 78.2931C49.3105 83.0664 49.217 86.3436 50.1551 88.9035C51.0941 91.4633 52.0292 97.2229 60.0178 95.5066C66.6925 94.0721 70.1516 90.3551 70.633 84.1545C70.9743 79.7466 71.7473 80.3983 71.7958 76.4571L72.4158 74.5916C73.1305 68.6162 72.5294 66.6884 76.6415 67.5851L77.6414 67.6732C80.6676 67.811 84.6293 67.1848 86.9545 66.1012C91.9608 63.7715 94.9302 59.8813 89.9936 60.9033H89.9943Z" fill="#336791"/>
<path d="M40.8212 30.8245C39.8062 30.6828 38.8869 30.8138 38.4218 31.167C38.1605 31.3657 38.0794 31.5958 38.0575 31.7542C37.9991 32.1739 38.2923 32.638 38.4726 32.8772C38.9824 33.5548 39.727 34.0204 40.4641 34.123C40.5709 34.1382 40.6773 34.145 40.783 34.145C42.012 34.145 43.1297 33.1853 43.2282 32.4769C43.3513 31.5897 42.0669 30.9984 40.8212 30.8248V30.8245ZM74.4482 30.8526C74.3512 30.1572 73.1172 29.9589 71.9461 30.1222C70.7766 30.2855 69.6426 30.815 69.7373 31.5119C69.813 32.0538 70.789 32.979 71.9442 32.979C72.042 32.979 72.1404 32.9726 72.2397 32.9585C73.0108 32.8514 73.5766 32.3603 73.8456 32.0774C74.2546 31.6459 74.4917 31.1651 74.4482 30.8526Z" fill="white"/>
<path d="M93.7425 60.6388C93.313 59.3365 91.9306 58.9176 89.6339 59.3931C82.8145 60.8044 80.3723 59.8268 79.5705 59.2347C84.8711 51.1374 89.2316 41.3493 91.584 32.217C92.6983 27.8911 93.3138 23.8736 93.3642 20.599C93.4198 17.005 92.8093 14.3639 91.5503 12.7505C86.4743 6.24643 79.0243 2.75761 70.0063 2.6619C63.8065 2.59202 58.5684 4.18299 57.5529 4.63039C55.4145 4.09716 53.0833 3.76977 50.5453 3.72799C45.8912 3.65241 41.8681 4.76978 38.5374 7.04743C37.0906 6.50735 33.3515 5.22022 28.7789 4.48151C20.8736 3.20539 14.5917 4.17236 10.1088 7.35696C4.75968 11.1572 2.29022 17.9503 2.76858 27.547C2.92955 30.7757 4.76422 40.7082 7.65939 50.2202C11.4704 62.7399 15.6131 69.8273 19.9718 71.2853C20.482 71.4558 21.0702 71.5751 21.719 71.5751C23.309 71.5751 25.2584 70.8565 27.2866 68.4114C29.7604 65.4355 32.3195 62.5319 34.9605 59.7041C36.6739 60.6263 38.5563 61.1413 40.4815 61.1929C40.4853 61.2434 40.4902 61.294 40.4948 61.3441C40.1634 61.7404 39.8389 62.1424 39.5214 62.55C38.1874 64.248 37.9098 64.6016 33.6159 65.4881C32.3944 65.741 29.1504 66.4114 29.1027 68.6917C29.0512 71.1831 32.9376 72.2295 33.3803 72.3404C34.9234 72.7278 36.41 72.9188 37.8276 72.9188C41.2754 72.9188 44.3096 71.7825 46.7343 69.5838C46.6597 78.4658 47.029 87.2178 48.0925 89.8844C48.9636 92.0675 51.0915 97.4025 57.8128 97.4021C58.799 97.4021 59.8845 97.287 61.0787 97.0303C68.0936 95.5225 71.1399 92.4135 72.3181 85.5592C72.9488 81.8961 74.0309 73.149 74.5399 68.4569C75.614 68.7931 76.9968 68.9469 78.4918 68.9465C81.6097 68.9465 85.2074 68.2822 87.4636 67.2321C89.9982 66.0517 94.572 63.1553 93.7425 60.6388ZM77.0374 28.9333C77.0143 30.3184 76.8241 31.5759 76.6227 32.8885C76.4056 34.3002 76.1814 35.7598 76.125 37.5315C76.0693 39.2558 76.284 41.0485 76.4916 42.7822C76.9113 46.284 77.3419 49.889 75.675 53.4462C75.3981 52.9542 75.1515 52.4457 74.9365 51.9236C74.7293 51.42 74.2793 50.611 73.6563 49.4914C71.2327 45.1328 65.5571 34.9261 68.4625 30.7612C69.3279 29.5216 71.5243 28.247 77.0374 28.9333ZM70.3547 5.46671C78.435 5.64559 84.8268 8.67676 89.3521 14.4755C92.8229 18.9233 89.001 39.1616 77.9365 56.6213C77.8253 56.4794 77.7134 56.338 77.601 56.1971L77.4608 56.0216C80.32 51.2867 79.761 46.6019 79.2633 42.4484C79.0588 40.7439 78.8656 39.1339 78.9148 37.6215C78.9656 36.0188 79.1769 34.6439 79.3815 33.3146C79.6326 31.6766 79.8882 29.9815 79.8178 27.9834C79.8704 27.7738 79.8916 27.5261 79.864 27.2322C79.6841 25.3161 77.5025 19.5815 73.056 14.3912C70.6236 11.5522 67.0766 8.3752 62.2335 6.23238C64.3167 5.79941 67.1653 5.39569 70.3547 5.46671ZM25.1402 66.6218C22.9056 69.316 21.3626 68.7995 20.8551 68.6301C17.5486 67.5242 13.7118 60.5161 10.3292 49.4032C7.40222 39.7875 5.69178 30.1182 5.55619 27.4069C5.12896 18.8318 7.20186 12.8557 11.7177 9.6441C19.067 4.41809 31.1499 7.5461 36.0051 9.13252C35.9354 9.20164 35.8627 9.26621 35.7937 9.33647C27.8263 17.4049 28.0153 31.19 28.035 32.0328C28.0343 32.3579 28.0615 32.8182 28.0987 33.4514C28.2358 35.77 28.491 40.0853 27.8093 44.9721C27.176 49.5134 28.5721 53.9582 31.6388 57.1671C31.9536 57.4958 32.2844 57.8086 32.63 58.1044C31.265 59.5704 28.2983 62.8124 25.1402 66.6218ZM33.6542 55.2305C31.1824 52.6441 30.0598 49.0466 30.5738 45.3595C31.2934 40.1973 31.0279 35.7013 30.8851 33.2858C30.8651 32.9477 30.8472 32.6515 30.837 32.4179C32.0009 31.383 37.3947 28.4851 41.2413 29.3689C42.9964 29.7719 44.066 30.9705 44.5107 33.0321C46.812 43.7055 44.8152 48.1541 43.2108 51.7291C42.8801 52.4656 42.5677 53.1617 42.301 53.8818L42.0942 54.4386C41.5708 55.8461 41.0837 57.1549 40.7819 58.3976C38.1541 58.39 35.5979 57.2643 33.6542 55.2301V55.2305ZM34.0575 69.6248C33.2902 69.4326 32.6001 69.0988 32.1952 68.8219C32.5334 68.6624 33.1353 68.4452 34.1791 68.2294C39.2305 67.1869 40.0107 66.4509 41.7144 64.2818C42.1048 63.7843 42.5476 63.2207 43.1608 62.534L43.1616 62.5332C44.0747 61.5078 44.4925 61.6817 45.25 61.997C45.8639 62.2514 46.462 63.0232 46.7044 63.8724C46.8192 64.2735 46.9479 65.0346 46.5264 65.6271C42.9676 70.6237 37.7818 70.5595 34.0575 69.6248ZM60.4939 94.2935C54.3142 95.6212 52.1262 92.4594 50.6843 88.8449C49.7537 86.5114 49.2962 75.9887 49.6208 64.368C49.6249 64.2135 49.603 64.0642 49.5605 63.9237C49.5226 63.6462 49.4649 63.3718 49.3878 63.1026C48.9053 61.4117 47.7293 59.9973 46.3184 59.4109C45.7579 59.1781 44.7292 58.7508 43.493 59.068C43.7566 57.9787 44.2137 56.7485 44.7095 55.4166L44.9174 54.8564C45.1515 54.2248 45.4454 53.5704 45.756 52.8776C47.435 49.1374 49.7344 44.0143 47.2388 32.4407C46.3041 28.1057 43.1824 25.9887 38.4503 26.4805C35.6134 26.7749 33.0179 27.9226 31.7233 28.5808C31.4449 28.7221 31.1904 28.8588 30.9525 28.9918C31.3139 24.6241 32.6789 16.4615 37.7852 11.297C41.0004 8.04591 45.2822 6.44013 50.4991 6.52672C60.7784 6.69535 67.3702 11.9852 71.0902 16.3935C74.296 20.1919 76.0318 24.0183 76.7245 26.0821C71.5148 25.5508 67.9716 26.582 66.1756 29.157C62.268 34.7582 68.3132 45.6296 71.2186 50.8545C71.7515 51.8119 72.2113 52.6395 72.356 52.9912C73.3021 55.2905 74.527 56.8256 75.4212 57.946C75.6955 58.2894 75.9613 58.6225 76.1636 58.9134C74.5857 59.3695 71.7515 60.4235 72.0098 65.6916C71.8015 68.335 70.3202 80.7111 69.5677 85.0837C68.5742 90.8605 66.4543 93.012 60.4939 94.2938V94.2935ZM86.2884 64.6935C84.6749 65.4444 81.9748 66.0076 79.4099 66.1288C76.5768 66.2617 75.1345 65.8105 74.7952 65.5329C74.6361 62.2499 75.8545 61.907 77.1442 61.5439C77.3468 61.4869 77.5445 61.4311 77.7354 61.3642C77.854 61.4611 77.9839 61.5572 78.1263 61.6513C80.4033 63.1584 84.4647 63.3209 90.1986 62.1341L90.2615 62.1215C89.488 62.8466 88.1647 63.8196 86.2884 64.6935Z" fill="white"/>
</svg>
