<svg width="101" height="101" viewBox="0 0 101 101" fill="none" xmlns="http://www.w3.org/2000/svg">
<path d="M50.6168 98.2306C24.3612 98.2306 3 76.8714 3 50.6148C3 24.3583 24.3612 2.99902 50.6168 2.99902C76.8724 2.99902 98.2336 24.3603 98.2336 50.6158C98.2336 76.8714 76.8724 98.2306 50.6168 98.2306Z" fill="#85EA2D"/>
<path d="M49.9995 5.7654C74.9818 5.7654 95.2326 26.0163 95.2326 50.9985C95.2326 75.9798 74.9818 96.2316 49.9995 96.2316C25.0182 96.2316 4.76638 75.9798 4.76638 50.9985C4.76638 26.0173 25.0182 5.7654 49.9995 5.7654ZM49.9995 0.999023C22.4297 0.999023 0 23.4287 0 50.9985C0 78.5684 22.4297 100.998 49.9995 100.998C77.5693 100.998 100 78.5684 100 50.9985C100 23.4287 77.5693 0.999023 49.9995 0.999023Z" fill="#173647"/>
<path d="M31.9192 34.3876C31.7653 36.0987 31.9762 37.8677 31.8622 39.5978C31.7273 41.3288 31.5154 43.0399 31.1696 44.7509C30.6889 47.1926 29.1697 49.0386 27.0749 50.5767C31.1516 53.2303 31.6124 57.344 31.8812 61.5167C32.0161 63.7665 31.9582 66.0352 32.1891 68.265C32.362 69.9951 33.0346 70.4378 34.8236 70.4948C35.5542 70.5138 36.3028 70.4948 37.1503 70.4948V75.8398C31.8632 76.7433 27.4986 75.2442 26.4212 70.7646C26.0744 69.1305 25.8435 67.4574 25.7676 65.7654C25.6516 63.9774 25.8435 62.1893 25.7096 60.4013C25.3248 55.498 24.6902 53.8449 19.9998 53.6141V47.5194C20.3456 47.4425 20.6724 47.3845 21.0182 47.3465C23.5948 47.2116 24.6902 46.423 25.2479 43.8854C25.5177 42.4632 25.6716 41.021 25.7286 39.5598C25.9215 36.7723 25.8445 33.9269 26.3243 31.1584C26.9969 27.1786 29.4586 25.2557 33.5543 25.0248C34.7077 24.9668 35.881 25.0248 37.2073 25.0248V30.4858C36.6496 30.5248 36.1689 30.6007 35.6691 30.6007C32.343 30.4848 32.1691 31.6192 31.9192 34.3876ZM38.3217 47.0387H38.2447C36.3218 46.9427 34.6687 48.4419 34.5717 50.3649C34.4758 52.3068 35.975 53.9609 37.8979 54.0558H38.1288C40.0327 54.1718 41.6658 52.7096 41.7818 50.8066V50.6147C41.8208 48.6728 40.2636 47.0777 38.3217 47.0387ZM50.377 47.0387C48.5121 46.9807 46.9539 48.4419 46.897 50.2879C46.897 50.4038 46.897 50.4998 46.917 50.6147C46.917 52.7106 48.3392 54.0568 50.493 54.0568C52.6078 54.0568 53.9351 52.6726 53.9351 50.4998C53.9151 48.4039 52.5109 47.0197 50.377 47.0387ZM62.7213 47.0387C60.7603 46.9997 59.1252 48.5578 59.0683 50.5188C59.0683 52.4797 60.6444 54.0558 62.6053 54.0558H62.6443C64.4133 54.3637 66.2013 52.6526 66.3173 50.5957C66.4122 48.6918 64.6822 47.0387 62.7213 47.0387ZM79.6599 47.3265C77.4292 47.2306 76.3138 46.481 75.7571 44.3652C75.4103 43.0199 75.1994 41.6157 75.1224 40.2314C74.9685 37.6548 74.9875 35.0593 74.8146 32.4827C74.4108 26.369 69.9893 24.2352 63.5668 25.2916V30.5987C64.5852 30.5987 65.3738 30.5987 66.1624 30.6177C67.5276 30.6367 68.566 31.1564 68.7 32.6756C68.8349 34.0598 68.8349 35.463 68.9698 36.8673C69.2397 39.6557 69.3926 42.4812 69.8733 45.2307C70.2971 47.4994 71.8542 49.1915 73.7952 50.5757C70.393 52.8635 69.3926 56.1317 69.2197 59.8047C69.1237 62.3233 69.0658 64.8609 68.9318 67.3995C68.8159 69.7062 68.0093 70.4558 65.6826 70.5138C65.029 70.5328 64.3943 70.5907 63.6637 70.6297V76.0707C65.029 76.0707 66.2783 76.1477 67.5276 76.0707C71.4115 75.8398 73.7572 73.9559 74.5268 70.1869C74.8536 68.1101 75.0455 66.0152 75.1035 63.9194C75.2374 61.9965 75.2194 60.0545 75.4113 58.1516C75.6991 55.1712 77.0644 53.9409 80.0447 53.749C80.3336 53.71 80.6024 53.653 80.8723 53.5571V47.4614C80.3715 47.4035 80.0247 47.3465 79.6599 47.3265Z" fill="#173647"/>
</svg>
